<svg width="27" height="27" viewBox="0 0 27 27" fill="none" xmlns="http://www.w3.org/2000/svg">
<path d="M26.1894 21.2415C26.3237 21.6449 26.0782 22.3265 25.6416 22.7631L22.8722 25.5325C22.2173 26.1879 20.987 26.4403 20.1269 26.096L18.8472 25.5846C11.6797 22.7172 3.53255 14.5705 0.665608 7.4025L0.153733 6.12325C-0.190142 5.26312 0.062296 4.03287 0.717233 3.37793L3.48661 0.60856C3.92323 0.171497 4.6053 -0.0739402 5.00823 0.0608098C7.22548 0.799747 9.62561 3.19943 10.3645 5.41668C10.4989 5.81962 10.2534 6.50168 9.8168 6.93831L8.23436 8.52075C7.7973 8.95737 7.66736 9.76062 7.94342 10.3127L8.35598 11.1383C9.59892 13.6242 12.626 16.6512 15.1119 17.8942L15.937 18.3067C16.4895 18.5828 17.2924 18.4524 17.729 18.0158L19.3119 16.4334C19.7485 15.9967 20.4301 15.7513 20.8335 15.8856C23.0503 16.6246 25.4504 19.0247 26.1894 21.2415Z" fill="black"/>
<path d="M12.052 4.20616L12.1544 5.32835C12.1824 5.63591 12.3928 5.85291 12.6247 5.81223C12.6247 5.81223 13.0539 5.78029 13.4861 5.7921C15.3179 5.83541 17.0627 6.59141 18.3564 7.89298C19.6579 9.18666 20.4135 10.9314 20.4607 12.7667C20.4769 13.3609 20.4109 13.9484 20.4047 13.9716C20.3295 14.2713 20.5124 14.5705 20.8134 14.6401L21.9014 14.8912C22.2024 14.9608 22.5069 14.7735 22.5804 14.4739C22.6316 14.2678 22.7174 13.4912 22.6964 12.7077C22.6369 10.2984 21.6437 8.0076 19.9388 6.31054C18.2413 4.60516 15.951 3.61204 13.5417 3.55298C13.0228 3.53898 12.5079 3.57179 12.5079 3.57179C12.2283 3.61423 12.0244 3.8986 12.052 4.20616Z" fill="black"/>
<path fill-rule="evenodd" clip-rule="evenodd" d="M11.7287 0.648402L11.8302 1.76228C11.8582 2.06984 12.1071 2.29034 12.3862 2.25403C12.3862 2.25403 12.8968 2.2269 13.4069 2.23915C16.196 2.3144 18.8428 3.45803 20.805 5.43597L20.8129 5.44384C20.809 5.4399 20.809 5.4399 20.805 5.43597C20.809 5.4399 20.809 5.4399 20.809 5.4399L20.8129 5.44384C22.7913 7.40603 23.9384 10.0568 24.0097 12.842C24.0298 13.675 23.945 14.5084 23.8842 14.7744C23.8155 15.0758 24.004 15.3764 24.305 15.446L25.3966 15.698C25.6976 15.7671 25.9973 15.579 26.066 15.278C26.1684 14.83 26.2716 13.8088 26.2488 12.7868C26.1618 9.42378 24.781 6.22347 22.3914 3.85747C22.3914 3.85747 22.3914 3.85747 22.3875 3.85353L22.3914 3.85747C20.0259 1.46784 16.8251 0.0870895 13.4664 0.00396447C12.867 -0.010473 12.2694 0.0188394 12.2335 0.0232144C11.9268 0.0608394 11.7007 0.34084 11.7287 0.648402ZM22.3875 3.85353C22.3914 3.85747 22.3914 3.85747 22.3914 3.85747L22.3875 3.85353Z" fill="black"/>
</svg>
